<svg viewBox="0 0 100 100"><path d="M48 72l4 0c0,0 1,0 2,-1 1,0 1,-1 1,-1 0,0 0,-6 1,-6 3,-2 6,4 9,7 3,2 5,1 5,1l9 0c0,0 4,0 2,-4 0,0 -1,-3 -6,-7 -6,-5 -5,-5 2,-14 4,-5 5,-9 5,-10 -1,-1 -4,-1 -4,-1l-10 0c0,0 0,0 -1,0 0,1 -1,1 -1,1 0,0 -2,5 -4,8 -4,8 -6,8 -7,8 -1,-2 -1,-5 -1,-7 0,-7 1,-10 -2,-11 -1,0 -2,-1 -5,-1 -3,0 -6,0 -8,1 -1,1 -2,2 -1,2 0,0 2,0 3,2 1,1 1,4 1,4 0,0 0,9 -2,10 -1,0 -3,-1 -7,-8 -2,-3 -3,-7 -3,-7 0,0 -1,-1 -1,-1 -1,-1 -2,-1 -2,-1l-9 0c0,0 -2,0 -2,1 -1,0 0,1 0,1 0,0 7,18 16,26 7,8 16,8 16,8l0 0 0 0z"/></svg>